<svg width="15" height="15" viewBox="0 0 15 15" fill="none" xmlns="http://www.w3.org/2000/svg">
<path d="M7.64764 15C7.59797 15 7.5483 15 7.49829 14.9998C6.32253 15.0026 5.23614 14.9728 4.17962 14.9084C3.21099 14.8495 2.32682 14.5148 1.62255 13.9405C0.942994 13.3864 0.478936 12.6371 0.243302 11.7138C0.0382233 10.91 0.0273514 10.1209 0.0169373 9.3577C0.00938415 8.8101 0.00160217 8.16122 0 7.50135C0.00160217 6.83874 0.00938415 6.18986 0.0169373 5.64225C0.0273514 4.87916 0.0382233 4.09009 0.243302 3.28614C0.478936 2.36283 0.942994 1.61358 1.62255 1.05945C2.32682 0.485189 3.21099 0.150448 4.17973 0.0915109C5.23625 0.0273094 6.32287 -0.00267423 7.50115 0.000186801C8.67727 -0.00233091 9.76331 0.0273094 10.8198 0.0915109C11.7885 0.150448 12.6726 0.485189 13.3769 1.05945C14.0566 1.61358 14.5205 2.36283 14.7561 3.28614C14.9612 4.08997 14.9721 4.87916 14.9825 5.64225C14.9901 6.18986 14.998 6.83874 14.9994 7.49861C14.998 8.16122 14.9901 8.8101 14.9825 9.3577C14.9782 9.68134 14.7108 9.93998 14.3887 9.93563C14.065 9.93117 13.8064 9.66521 13.8107 9.34168C13.8182 8.79729 13.8261 8.15264 13.8276 7.49861C13.8261 6.84732 13.8182 6.20267 13.8107 5.65828C13.8012 4.9635 13.7914 4.24504 13.6207 3.5759C13.4484 2.90093 13.1172 2.35985 12.6364 1.96766C12.1162 1.54343 11.4811 1.30573 10.7486 1.26121C9.71696 1.1985 8.65495 1.16955 7.50115 1.17195C6.34461 1.1692 5.28249 1.1985 4.2508 1.26121C3.51838 1.30573 2.88334 1.54343 2.36309 1.96755C1.88221 2.35974 1.55102 2.90081 1.37879 3.5759C1.20804 4.24504 1.1982 4.9635 1.1887 5.65828C1.18126 6.20267 1.17348 6.84732 1.17188 7.50135C1.17348 8.15264 1.18126 8.79729 1.1887 9.34168C1.1982 10.0365 1.20804 10.7549 1.37879 11.4241C1.55102 12.099 1.88221 12.6401 2.36309 13.0323C2.88334 13.4565 3.51838 13.6942 4.2508 13.7387C5.28249 13.8015 6.34484 13.8308 7.49841 13.8279C8.65506 13.8306 9.71696 13.8015 10.7486 13.7387C11.4811 13.6942 12.1161 13.4565 12.6364 13.0323C12.9828 12.7497 13.2534 12.3872 13.4408 11.9546C13.5694 11.6577 13.9143 11.5212 14.2113 11.6498C14.5083 11.7785 14.6447 12.1234 14.5162 12.4204C14.2535 13.0268 13.8703 13.5382 13.3769 13.9405C12.6726 14.5149 11.7885 14.8495 10.8198 14.9084C9.80806 14.97 8.7687 15 7.64764 15ZM11.1325 7.49998C11.1325 5.48066 9.48968 3.83786 7.47037 3.83786C5.45117 3.83786 3.80826 5.48066 3.80826 7.49998C3.80826 9.51929 5.45117 11.1621 7.47037 11.1621C9.48968 11.1621 11.1325 9.51929 11.1325 7.49998ZM9.96061 7.49998C9.96061 8.87304 8.84355 9.99022 7.47037 9.99022C6.09731 9.99022 4.98013 8.87304 4.98013 7.49998C4.98013 6.12691 6.09731 5.00974 7.47037 5.00974C8.84355 5.00974 9.96061 6.12691 9.96061 7.49998ZM11.5426 2.66598C11.0573 2.66598 10.6637 3.05943 10.6637 3.54489C10.6637 4.03035 11.0573 4.4238 11.5426 4.4238C12.0281 4.4238 12.4215 4.03035 12.4215 3.54489C12.4215 3.05943 12.0281 2.66598 11.5426 2.66598Z" fill="white"/>
</svg>
