<svg width="15" height="15" viewBox="0 0 15 15" fill="none" xmlns="http://www.w3.org/2000/svg">
<path d="M7.5 15C3.36433 15 0 11.6357 0 7.5C0 3.36433 3.36433 0 7.5 0C11.6357 0 15 3.36433 15 7.5C15 11.6357 11.6357 15 7.5 15ZM7.5 0.9375C3.88126 0.9375 0.9375 3.88126 0.9375 7.5C0.9375 11.1187 3.88126 14.0625 7.5 14.0625C11.1187 14.0625 14.0625 11.1187 14.0625 7.5C14.0625 3.88126 11.1187 0.9375 7.5 0.9375Z" fill="white"/>
<path d="M10.7812 11.5626C10.6612 11.5626 10.5413 11.5169 10.4499 11.425L7.16869 8.14377C7.08057 8.05565 7.03125 7.93629 7.03125 7.81258V3.4375C7.03125 3.17875 7.24125 2.96875 7.5 2.96875C7.75875 2.96875 7.96875 3.17875 7.96875 3.4375V7.61814L11.1126 10.7619C11.2957 10.9451 11.2957 11.2419 11.1126 11.425C11.0212 11.5169 10.9013 11.5626 10.7812 11.5626Z" fill="white"/>
</svg>
