<svg width="194" height="74" viewBox="0 0 194 74" fill="none" xmlns="http://www.w3.org/2000/svg">
<path d="M3.876 65.8777H2.1488V69.1689H1.4688V62.0697H2.1488V65.2929H3.876L6.5552 62.0697H7.3032L4.42 65.5105L7.5208 69.1689H6.7048L3.876 65.8777ZM14.7473 62.0697V69.1689H14.0673V62.6817H10.3681L10.2729 64.5721C10.2185 65.5513 10.1369 66.3719 10.0281 67.0337C9.91929 67.6956 9.73342 68.2305 9.47049 68.6385C9.20755 69.0465 8.84489 69.2505 8.38249 69.2505C8.24649 69.2505 8.05155 69.2188 7.79769 69.1553L7.86569 68.5705C8.01075 68.6068 8.11955 68.6249 8.19209 68.6249C8.57289 68.6249 8.86302 68.4391 9.06249 68.0673C9.26195 67.6956 9.39795 67.2332 9.47049 66.6801C9.54302 66.1271 9.60195 65.4063 9.64729 64.5177L9.76969 62.0697H14.7473ZM17.6852 62.0697H18.3652V68.1217L23.4244 62.0697H24.0228V69.1689H23.3428V63.1169L18.2836 69.1689H17.6852V62.0697ZM26.9555 62.0697H27.6355V65.3065H32.4499V62.0697H33.1299V69.1689H32.4499V65.9049H27.6355V69.1689H26.9555V62.0697ZM36.0665 62.0697H36.7465V68.1217L41.8057 62.0697H42.4041V69.1689H41.7241V63.1169L36.6649 69.1689H36.0665V62.0697ZM47.744 65.8777H46.0168V69.1689H45.3368V62.0697H46.0168V65.2929H47.744L50.4232 62.0697H51.1712L48.288 65.5105L51.3888 69.1689H50.5728L47.744 65.8777ZM55.2864 62.0153C56.1659 62.0153 56.8414 62.242 57.3128 62.6953C57.7843 63.1396 58.02 63.7969 58.02 64.6673V69.1689H57.3672V67.9041C57.1406 68.3212 56.8096 68.6476 56.3744 68.8833C55.9392 69.11 55.4179 69.2233 54.8104 69.2233C54.0216 69.2233 53.396 69.0375 52.9336 68.6657C52.4803 68.294 52.2536 67.8044 52.2536 67.1969C52.2536 66.6076 52.4622 66.1316 52.8792 65.7689C53.3054 65.3972 53.9808 65.2113 54.9056 65.2113H57.34V64.6401C57.34 63.9783 57.1587 63.4751 56.796 63.1305C56.4424 62.786 55.9211 62.6137 55.232 62.6137C54.7606 62.6137 54.3072 62.6953 53.872 62.8585C53.4459 63.0217 53.0832 63.2393 52.784 63.5113L52.444 63.0217C52.7976 62.7044 53.2238 62.4596 53.7224 62.2873C54.2211 62.106 54.7424 62.0153 55.2864 62.0153ZM54.9056 68.6657C55.495 68.6657 55.9936 68.5297 56.4016 68.2577C56.8187 67.9857 57.1315 67.5913 57.34 67.0745V65.7417H54.9192C54.2211 65.7417 53.7134 65.8687 53.396 66.1225C53.0878 66.3764 52.9336 66.7255 52.9336 67.1697C52.9336 67.6321 53.1059 67.9993 53.4504 68.2713C53.795 68.5343 54.28 68.6657 54.9056 68.6657ZM67.8526 62.0153C68.5145 62.0153 69.1129 62.1695 69.6478 62.4777C70.1828 62.786 70.5998 63.2121 70.899 63.7561C71.2073 64.3001 71.3614 64.9212 71.3614 65.6193C71.3614 66.3175 71.2073 66.9431 70.899 67.4961C70.5998 68.0401 70.1828 68.4663 69.6478 68.7745C69.1129 69.0737 68.5145 69.2233 67.8526 69.2233C67.227 69.2233 66.6604 69.0783 66.1526 68.7881C65.6449 68.4889 65.2505 68.0764 64.9694 67.5505V71.8073H64.2894V62.0697H64.9422V63.7425C65.2233 63.1985 65.6177 62.7769 66.1254 62.4777C66.6422 62.1695 67.218 62.0153 67.8526 62.0153ZM67.8118 68.6113C68.3558 68.6113 68.8454 68.4844 69.2806 68.2305C69.7158 67.9767 70.0558 67.6231 70.3006 67.1697C70.5545 66.7164 70.6814 66.1996 70.6814 65.6193C70.6814 65.0391 70.5545 64.5223 70.3006 64.0689C70.0558 63.6156 69.7158 63.262 69.2806 63.0081C68.8454 62.7543 68.3558 62.6273 67.8118 62.6273C67.2678 62.6273 66.7782 62.7543 66.343 63.0081C65.9169 63.262 65.5769 63.6156 65.323 64.0689C65.0782 64.5223 64.9558 65.0391 64.9558 65.6193C64.9558 66.1996 65.0782 66.7164 65.323 67.1697C65.5769 67.6231 65.9169 67.9767 66.343 68.2305C66.7782 68.4844 67.2678 68.6113 67.8118 68.6113ZM78.5564 62.0697V69.1689H77.9308V66.7209H75.5644C75.4012 66.7209 75.2833 66.7164 75.2108 66.7073L73.4564 69.1689H72.7084L74.5444 66.6257C73.9641 66.4988 73.5198 66.2495 73.2116 65.8777C72.9033 65.506 72.7492 65.0255 72.7492 64.4361C72.7492 63.6564 73.0076 63.0671 73.5244 62.6681C74.0502 62.2692 74.7665 62.0697 75.6732 62.0697H78.5564ZM73.4292 64.4633C73.4292 65.6239 74.1636 66.2041 75.6324 66.2041H77.9308V62.6681H75.714C74.1908 62.6681 73.4292 63.2665 73.4292 64.4633ZM88.1659 68.5705V70.9369H87.5267V69.1689H80.8083V70.9369H80.1555V68.5705H80.5771C81.0577 68.5433 81.3841 68.1716 81.5563 67.4553C81.7377 66.73 81.8646 65.7145 81.9371 64.4089L82.0323 62.0697H87.0235V68.5705H88.1659ZM82.5627 64.4497C82.5174 65.5287 82.4267 66.4263 82.2907 67.1425C82.1547 67.8588 81.9099 68.3348 81.5563 68.5705H86.3435V62.6817H82.6443L82.5627 64.4497ZM93.0031 69.2233C92.3321 69.2233 91.7247 69.0692 91.1807 68.7609C90.6457 68.4527 90.2241 68.0265 89.9159 67.4825C89.6076 66.9295 89.4535 66.3084 89.4535 65.6193C89.4535 64.9303 89.6076 64.3137 89.9159 63.7697C90.2241 63.2167 90.6457 62.786 91.1807 62.4777C91.7247 62.1695 92.3321 62.0153 93.0031 62.0153C93.674 62.0153 94.2769 62.1695 94.8119 62.4777C95.3559 62.786 95.782 63.2167 96.0903 63.7697C96.3985 64.3137 96.5527 64.9303 96.5527 65.6193C96.5527 66.3084 96.3985 66.9295 96.0903 67.4825C95.782 68.0265 95.3559 68.4527 94.8119 68.7609C94.2769 69.0692 93.674 69.2233 93.0031 69.2233ZM93.0031 68.6113C93.5471 68.6113 94.0321 68.4844 94.4583 68.2305C94.8935 67.9767 95.2335 67.6231 95.4783 67.1697C95.7321 66.7164 95.8591 66.1996 95.8591 65.6193C95.8591 65.0391 95.7321 64.5223 95.4783 64.0689C95.2335 63.6156 94.8935 63.262 94.4583 63.0081C94.0321 62.7543 93.5471 62.6273 93.0031 62.6273C92.4591 62.6273 91.9695 62.7543 91.5343 63.0081C91.1081 63.262 90.7681 63.6156 90.5143 64.0689C90.2695 64.5223 90.1471 65.0391 90.1471 65.6193C90.1471 66.1996 90.2695 66.7164 90.5143 67.1697C90.7681 67.6231 91.1081 67.9767 91.5343 68.2305C91.9695 68.4844 92.4591 68.6113 93.0031 68.6113ZM106.492 62.0697V69.1689H105.866V63.1577L102.779 68.2577H102.466L99.3928 63.1713V69.1689H98.7672V62.0697H99.4336L102.643 67.4417L105.866 62.0697H106.492ZM115.795 69.2233C115.106 69.2233 114.489 69.0692 113.945 68.7609C113.401 68.4527 112.975 68.0265 112.667 67.4825C112.358 66.9295 112.204 66.3084 112.204 65.6193C112.204 64.9212 112.358 64.3001 112.667 63.7561C112.975 63.2031 113.401 62.7769 113.945 62.4777C114.489 62.1695 115.106 62.0153 115.795 62.0153C116.366 62.0153 116.883 62.1287 117.345 62.3553C117.817 62.5729 118.197 62.8948 118.487 63.3209L117.984 63.6881C117.73 63.3345 117.413 63.0716 117.032 62.8993C116.661 62.718 116.248 62.6273 115.795 62.6273C115.242 62.6273 114.743 62.7543 114.299 63.0081C113.863 63.2529 113.519 63.602 113.265 64.0553C113.02 64.5087 112.898 65.03 112.898 65.6193C112.898 66.2087 113.02 66.73 113.265 67.1833C113.519 67.6367 113.863 67.9903 114.299 68.2441C114.743 68.4889 115.242 68.6113 115.795 68.6113C116.248 68.6113 116.661 68.5252 117.032 68.3529C117.413 68.1716 117.73 67.9041 117.984 67.5505L118.487 67.9177C118.197 68.3439 117.817 68.6703 117.345 68.8969C116.883 69.1145 116.366 69.2233 115.795 69.2233ZM130.666 68.5705V70.9369H130.027V69.1689H123.308V70.9369H122.656V68.5705H123.077C123.558 68.5433 123.884 68.1716 124.056 67.4553C124.238 66.73 124.365 65.7145 124.437 64.4089L124.532 62.0697H129.524V68.5705H130.666ZM125.063 64.4497C125.017 65.5287 124.927 66.4263 124.791 67.1425C124.655 67.8588 124.41 68.3348 124.056 68.5705H128.844V62.6817H125.144L125.063 64.4497ZM135.503 69.2233C134.832 69.2233 134.225 69.0692 133.681 68.7609C133.146 68.4527 132.724 68.0265 132.416 67.4825C132.108 66.9295 131.953 66.3084 131.953 65.6193C131.953 64.9303 132.108 64.3137 132.416 63.7697C132.724 63.2167 133.146 62.786 133.681 62.4777C134.225 62.1695 134.832 62.0153 135.503 62.0153C136.174 62.0153 136.777 62.1695 137.312 62.4777C137.856 62.786 138.282 63.2167 138.59 63.7697C138.899 64.3137 139.053 64.9303 139.053 65.6193C139.053 66.3084 138.899 66.9295 138.59 67.4825C138.282 68.0265 137.856 68.4527 137.312 68.7609C136.777 69.0692 136.174 69.2233 135.503 69.2233ZM135.503 68.6113C136.047 68.6113 136.532 68.4844 136.958 68.2305C137.393 67.9767 137.733 67.6231 137.978 67.1697C138.232 66.7164 138.359 66.1996 138.359 65.6193C138.359 65.0391 138.232 64.5223 137.978 64.0689C137.733 63.6156 137.393 63.262 136.958 63.0081C136.532 62.7543 136.047 62.6273 135.503 62.6273C134.959 62.6273 134.469 62.7543 134.034 63.0081C133.608 63.262 133.268 63.6156 133.014 64.0689C132.769 64.5223 132.647 65.0391 132.647 65.6193C132.647 66.1996 132.769 66.7164 133.014 67.1697C133.268 67.6231 133.608 67.9767 134.034 68.2305C134.469 68.4844 134.959 68.6113 135.503 68.6113ZM148.992 62.0697V69.1689H148.366V63.1577L145.279 68.2577H144.966L141.893 63.1713V69.1689H141.267V62.0697H141.934L145.143 67.4417L148.366 62.0697H148.992ZM154.761 69.2233C154.09 69.2233 153.482 69.0692 152.938 68.7609C152.404 68.4527 151.982 68.0265 151.674 67.4825C151.365 66.9295 151.211 66.3084 151.211 65.6193C151.211 64.9303 151.365 64.3137 151.674 63.7697C151.982 63.2167 152.404 62.786 152.938 62.4777C153.482 62.1695 154.09 62.0153 154.761 62.0153C155.432 62.0153 156.035 62.1695 156.57 62.4777C157.114 62.786 157.54 63.2167 157.848 63.7697C158.156 64.3137 158.31 64.9303 158.31 65.6193C158.31 66.3084 158.156 66.9295 157.848 67.4825C157.54 68.0265 157.114 68.4527 156.57 68.7609C156.035 69.0692 155.432 69.2233 154.761 69.2233ZM154.761 68.6113C155.305 68.6113 155.79 68.4844 156.216 68.2305C156.651 67.9767 156.991 67.6231 157.236 67.1697C157.49 66.7164 157.617 66.1996 157.617 65.6193C157.617 65.0391 157.49 64.5223 157.236 64.0689C156.991 63.6156 156.651 63.262 156.216 63.0081C155.79 62.7543 155.305 62.6273 154.761 62.6273C154.217 62.6273 153.727 62.7543 153.292 63.0081C152.866 63.262 152.526 63.6156 152.272 64.0689C152.027 64.5223 151.905 65.0391 151.905 65.6193C151.905 66.1996 152.027 66.7164 152.272 67.1697C152.526 67.6231 152.866 67.9767 153.292 68.2305C153.727 68.4844 154.217 68.6113 154.761 68.6113ZM168.25 62.0697V69.1689H167.624V63.1577L164.537 68.2577H164.224L161.151 63.1713V69.1689H160.525V62.0697H161.191L164.401 67.4417L167.624 62.0697H168.25Z" fill="white"/>
<path d="M71.2968 8.869C72.9111 8.869 74.1759 9.34331 75.0913 10.2919C76.0233 11.2406 76.4892 12.6053 76.4892 14.386V22H75.2411V14.4859C75.2411 13.0213 74.8832 11.9063 74.1676 11.1407C73.452 10.3752 72.4534 9.99238 71.1719 9.99238C69.7074 9.99238 68.5424 10.45 67.677 11.3654C66.8282 12.2807 66.4038 13.5123 66.4038 15.06V22H65.1556V14.4859C65.1556 13.0213 64.7978 11.9063 64.0822 11.1407C63.3666 10.3752 62.368 9.99238 61.0865 9.99238C59.622 9.99238 58.457 10.45 57.5916 11.3654C56.7428 12.2807 56.3184 13.5123 56.3184 15.06V22H55.0702V8.96886H56.2685V11.7648C56.7012 10.8495 57.342 10.1422 58.1907 9.64288C59.0561 9.12696 60.0797 8.869 61.2613 8.869C62.4429 8.869 63.4415 9.13528 64.2569 9.66785C65.0891 10.2004 65.6799 10.9826 66.0294 12.0144C66.4621 11.0492 67.1361 10.2836 68.0515 9.71777C68.9834 9.15193 70.0652 8.869 71.2968 8.869ZM92.6766 15.784H81.4678C81.5011 16.7992 81.759 17.7062 82.2417 18.5051C82.7243 19.2873 83.3734 19.8947 84.1888 20.3274C85.021 20.7601 85.953 20.9765 86.9848 20.9765C87.8336 20.9765 88.6158 20.8267 89.3314 20.5271C90.0637 20.2109 90.6711 19.7533 91.1538 19.1541L91.8777 19.9779C91.3119 20.6603 90.5962 21.1845 89.7308 21.5507C88.8821 21.9168 87.9584 22.0999 86.9598 22.0999C85.6617 22.0999 84.5051 21.8169 83.4899 21.2511C82.4747 20.6852 81.6758 19.903 81.0933 18.9045C80.5275 17.9059 80.2446 16.7659 80.2446 15.4844C80.2446 14.2196 80.5108 13.0879 81.0434 12.0893C81.5926 11.0741 82.3415 10.2836 83.2901 9.71777C84.2388 9.15193 85.3039 8.869 86.4855 8.869C87.6671 8.869 88.724 9.15193 89.6559 9.71777C90.6046 10.267 91.3452 11.0409 91.8777 12.0394C92.4269 13.038 92.7015 14.1697 92.7015 15.4345L92.6766 15.784ZM86.4855 9.96741C85.5702 9.96741 84.7464 10.1754 84.0141 10.5915C83.2818 10.9909 82.691 11.5651 82.2417 12.314C81.809 13.0463 81.5593 13.8784 81.4927 14.8104H91.4783C91.4284 13.8784 91.1787 13.0463 90.7294 12.314C90.28 11.5817 89.6892 11.0076 88.9569 10.5915C88.2247 10.1754 87.4009 9.96741 86.4855 9.96741ZM108.146 3.4768V22H106.923V18.9294C106.407 19.9446 105.683 20.7268 104.751 21.276C103.819 21.8253 102.762 22.0999 101.581 22.0999C100.366 22.0999 99.2674 21.8169 98.2854 21.2511C97.3035 20.6852 96.5296 19.903 95.9638 18.9045C95.4146 17.9059 95.14 16.7659 95.14 15.4844C95.14 14.2029 95.4146 13.0629 95.9638 12.0644C96.5296 11.0492 97.3035 10.267 98.2854 9.71777C99.2674 9.15193 100.366 8.869 101.581 8.869C102.746 8.869 103.786 9.1436 104.701 9.69281C105.633 10.242 106.365 11.0076 106.898 11.9895V3.4768H108.146ZM101.656 20.9765C102.654 20.9765 103.544 20.7435 104.327 20.2775C105.126 19.8115 105.75 19.1624 106.199 18.3303C106.665 17.4982 106.898 16.5496 106.898 15.4844C106.898 14.4193 106.665 13.4707 106.199 12.6385C105.75 11.8064 105.126 11.1574 104.327 10.6914C103.544 10.2254 102.654 9.99238 101.656 9.99238C100.657 9.99238 99.7583 10.2254 98.9595 10.6914C98.1773 11.1574 97.5532 11.8064 97.0872 12.6385C96.6378 13.4707 96.4132 14.4193 96.4132 15.4844C96.4132 16.5496 96.6378 17.4982 97.0872 18.3303C97.5532 19.1624 98.1773 19.8115 98.9595 20.2775C99.7583 20.7435 100.657 20.9765 101.656 20.9765ZM113.409 8.96886H114.657V22H113.409V8.96886ZM114.033 5.79844C113.75 5.79844 113.509 5.70691 113.309 5.52384C113.109 5.32413 113.009 5.08281 113.009 4.79989C113.009 4.51697 113.109 4.27565 113.309 4.07594C113.509 3.87623 113.75 3.77637 114.033 3.77637C114.316 3.77637 114.557 3.87623 114.757 4.07594C114.956 4.25901 115.056 4.492 115.056 4.77492C115.056 5.05785 114.956 5.29917 114.757 5.49888C114.557 5.69859 114.316 5.79844 114.033 5.79844ZM125.085 22.0999C123.82 22.0999 122.689 21.8169 121.69 21.2511C120.692 20.6852 119.909 19.903 119.344 18.9045C118.778 17.8893 118.495 16.7493 118.495 15.4844C118.495 14.2029 118.778 13.0629 119.344 12.0644C119.909 11.0492 120.692 10.267 121.69 9.71777C122.689 9.15193 123.82 8.869 125.085 8.869C126.134 8.869 127.082 9.07703 127.931 9.4931C128.797 9.89252 129.496 10.4833 130.028 11.2655L129.105 11.9396C128.639 11.2905 128.056 10.8079 127.357 10.4917C126.675 10.1588 125.917 9.99238 125.085 9.99238C124.07 9.99238 123.155 10.2254 122.339 10.6914C121.54 11.1407 120.908 11.7815 120.442 12.6136C119.993 13.4457 119.768 14.4027 119.768 15.4844C119.768 16.5662 119.993 17.5231 120.442 18.3553C120.908 19.1874 121.54 19.8365 122.339 20.3025C123.155 20.7518 124.07 20.9765 125.085 20.9765C125.917 20.9765 126.675 20.8184 127.357 20.5022C128.056 20.1693 128.639 19.6784 129.105 19.0293L130.028 19.7033C129.496 20.4855 128.797 21.0847 127.931 21.5007C127.082 21.9001 126.134 22.0999 125.085 22.0999ZM138.159 8.869C139.773 8.869 141.013 9.28507 141.878 10.1172C142.744 10.9327 143.176 12.1393 143.176 13.737V22H141.978V19.6784C141.562 20.4439 140.955 21.0431 140.156 21.4758C139.357 21.8918 138.4 22.0999 137.285 22.0999C135.837 22.0999 134.689 21.7587 133.84 21.0763C133.008 20.394 132.592 19.4953 132.592 18.3802C132.592 17.2985 132.974 16.4247 133.74 15.759C134.522 15.0767 135.762 14.7355 137.46 14.7355H141.928V13.687C141.928 12.4721 141.595 11.5485 140.93 10.916C140.281 10.2836 139.324 9.96741 138.059 9.96741C137.193 9.96741 136.361 10.1172 135.562 10.4168C134.78 10.7163 134.114 11.1158 133.565 11.615L132.941 10.7163C133.59 10.1338 134.372 9.68449 135.288 9.36828C136.203 9.03543 137.16 8.869 138.159 8.869ZM137.46 21.0763C138.541 21.0763 139.457 20.8267 140.206 20.3274C140.971 19.8281 141.545 19.1042 141.928 18.1556V15.7091H137.485C136.203 15.7091 135.271 15.9421 134.689 16.4081C134.123 16.8741 133.84 17.5148 133.84 18.3303C133.84 19.1791 134.156 19.8531 134.788 20.3524C135.421 20.835 136.311 21.0763 137.46 21.0763ZM149.517 11.8147C149.917 10.8661 150.541 10.1422 151.39 9.64288C152.238 9.12696 153.27 8.869 154.485 8.869V10.0922L154.186 10.0673C152.738 10.0673 151.606 10.5249 150.791 11.4403C149.975 12.339 149.567 13.5955 149.567 15.2098V22H148.319V8.96886H149.517V11.8147ZM168.812 15.784H157.603C157.636 16.7992 157.894 17.7062 158.377 18.5051C158.859 19.2873 159.508 19.8947 160.324 20.3274C161.156 20.7601 162.088 20.9765 163.12 20.9765C163.969 20.9765 164.751 20.8267 165.466 20.5271C166.199 20.2109 166.806 19.7533 167.289 19.1541L168.013 19.9779C167.447 20.6603 166.731 21.1845 165.866 21.5507C165.017 21.9168 164.093 22.0999 163.095 22.0999C161.797 22.0999 160.64 21.8169 159.625 21.2511C158.61 20.6852 157.811 19.903 157.228 18.9045C156.662 17.9059 156.379 16.7659 156.379 15.4844C156.379 14.2196 156.646 13.0879 157.178 12.0893C157.728 11.0741 158.476 10.2836 159.425 9.71777C160.374 9.15193 161.439 8.869 162.62 8.869C163.802 8.869 164.859 9.15193 165.791 9.71777C166.74 10.267 167.48 11.0409 168.013 12.0394C168.562 13.038 168.836 14.1697 168.836 15.4345L168.812 15.784ZM162.62 9.96741C161.705 9.96741 160.881 10.1754 160.149 10.5915C159.417 10.9909 158.826 11.5651 158.377 12.314C157.944 13.0463 157.694 13.8784 157.628 14.8104H167.613C167.563 13.8784 167.314 13.0463 166.864 12.314C166.415 11.5817 165.824 11.0076 165.092 10.5915C164.36 10.1754 163.536 9.96741 162.62 9.96741ZM60.2378 52.0999C58.9729 52.0999 57.8412 51.8169 56.8427 51.2511C55.8441 50.6852 55.0619 49.903 54.4961 48.9045C53.9302 47.8893 53.6473 46.7493 53.6473 45.4844C53.6473 44.2029 53.9302 43.0629 54.4961 42.0644C55.0619 41.0492 55.8441 40.267 56.8427 39.7178C57.8412 39.1519 58.9729 38.869 60.2378 38.869C61.2862 38.869 62.2349 39.077 63.0836 39.4931C63.9491 39.8925 64.6481 40.4833 65.1806 41.2655L64.2569 41.9396C63.791 41.2905 63.2085 40.8079 62.5095 40.4917C61.8271 40.1588 61.0699 39.9924 60.2378 39.9924C59.2226 39.9924 58.3072 40.2254 57.4917 40.6914C56.6929 41.1407 56.0605 41.7815 55.5945 42.6136C55.1451 43.4457 54.9205 44.4027 54.9205 45.4844C54.9205 46.5662 55.1451 47.5231 55.5945 48.3553C56.0605 49.1874 56.6929 49.8365 57.4917 50.3025C58.3072 50.7518 59.2226 50.9765 60.2378 50.9765C61.0699 50.9765 61.8271 50.8184 62.5095 50.5022C63.2085 50.1693 63.791 49.6784 64.2569 49.0293L65.1806 49.7033C64.6481 50.4855 63.9491 51.0847 63.0836 51.5007C62.2349 51.9001 61.2862 52.0999 60.2378 52.0999ZM68.698 33.4768H69.9462V52H68.698V33.4768ZM75.2071 38.9689H76.4553V52H75.2071V38.9689ZM75.8312 35.7984C75.5483 35.7984 75.307 35.7069 75.1073 35.5238C74.9076 35.3241 74.8077 35.0828 74.8077 34.7999C74.8077 34.517 74.9076 34.2756 75.1073 34.0759C75.307 33.8762 75.5483 33.7764 75.8312 33.7764C76.1141 33.7764 76.3555 33.8762 76.5552 34.0759C76.7549 34.259 76.8547 34.492 76.8547 34.7749C76.8547 35.0578 76.7549 35.2992 76.5552 35.4989C76.3555 35.6986 76.1141 35.7984 75.8312 35.7984ZM88.082 38.869C89.713 38.869 91.0028 39.3433 91.9514 40.2919C92.9001 41.2406 93.3744 42.6053 93.3744 44.386V52H92.1262V44.4859C92.1262 43.0213 91.7517 41.9063 91.0028 41.1407C90.2705 40.3752 89.2387 39.9924 87.9073 39.9924C86.3762 39.9924 85.1696 40.45 84.2875 41.3654C83.4055 42.2807 82.9644 43.5123 82.9644 45.06V52H81.7163V38.9689H82.9145V41.7898C83.3639 40.8744 84.0296 40.1588 84.9116 39.6429C85.8103 39.127 86.8671 38.869 88.082 38.869ZM98.5132 38.9689H99.7614V52H98.5132V38.9689ZM99.1373 35.7984C98.8544 35.7984 98.6131 35.7069 98.4134 35.5238C98.2137 35.3241 98.1138 35.0828 98.1138 34.7999C98.1138 34.517 98.2137 34.2756 98.4134 34.0759C98.6131 33.8762 98.8544 33.7764 99.1373 33.7764C99.4203 33.7764 99.6616 33.8762 99.8613 34.0759C100.061 34.259 100.161 34.492 100.161 34.7749C100.161 35.0578 100.061 35.2992 99.8613 35.4989C99.6616 35.6986 99.4203 35.7984 99.1373 35.7984ZM110.19 52.0999C108.925 52.0999 107.793 51.8169 106.795 51.2511C105.796 50.6852 105.014 49.903 104.448 48.9045C103.882 47.8893 103.599 46.7493 103.599 45.4844C103.599 44.2029 103.882 43.0629 104.448 42.0644C105.014 41.0492 105.796 40.267 106.795 39.7178C107.793 39.1519 108.925 38.869 110.19 38.869C111.238 38.869 112.187 39.077 113.036 39.4931C113.901 39.8925 114.6 40.4833 115.133 41.2655L114.209 41.9396C113.743 41.2905 113.161 40.8079 112.462 40.4917C111.779 40.1588 111.022 39.9924 110.19 39.9924C109.175 39.9924 108.259 40.2254 107.444 40.6914C106.645 41.1407 106.013 41.7815 105.547 42.6136C105.097 43.4457 104.873 44.4027 104.873 45.4844C104.873 46.5662 105.097 47.5231 105.547 48.3553C106.013 49.1874 106.645 49.8365 107.444 50.3025C108.259 50.7518 109.175 50.9765 110.19 50.9765C111.022 50.9765 111.779 50.8184 112.462 50.5022C113.161 50.1693 113.743 49.6784 114.209 49.0293L115.133 49.7033C114.6 50.4855 113.901 51.0847 113.036 51.5007C112.187 51.9001 111.238 52.0999 110.19 52.0999Z" fill="white"/>
<rect y="6.24121" width="49.9277" height="49.9277" fill="#01E1FF"/>
<rect x="2.49634" y="8.7373" width="44.935" height="44.935" fill="black"/>
<path d="M23.3382 24.0014C25.0191 24.0014 26.3505 24.4924 27.3324 25.4743C28.3143 26.4396 28.8053 27.8958 28.8053 29.843V37.4819H25.6848V30.2424C25.6848 29.0774 25.4268 28.2037 24.9109 27.6212C24.395 27.0221 23.6544 26.7225 22.6891 26.7225C21.6406 26.7225 20.8002 27.072 20.1678 27.771C19.5353 28.4533 19.2191 29.4352 19.2191 30.7167V37.4819H16.0986V30.2424C16.0986 29.0774 15.8407 28.2037 15.3248 27.6212C14.8088 27.0221 14.0682 26.7225 13.103 26.7225C12.0379 26.7225 11.1891 27.0637 10.5567 27.746C9.94089 28.4284 9.633 29.4186 9.633 30.7167V37.4819H6.51252V24.1512H9.48322V25.8488C9.9825 25.2496 10.6066 24.792 11.3555 24.4758C12.1044 24.1595 12.9366 24.0014 13.8519 24.0014C14.8505 24.0014 15.7325 24.1928 16.4981 24.5756C17.2803 24.9417 17.896 25.491 18.3454 26.2232C18.8946 25.5242 19.6019 24.9834 20.4673 24.6006C21.3327 24.2012 22.2897 24.0014 23.3382 24.0014ZM39.0309 37.6567C37.6496 37.6567 36.4097 37.3654 35.3113 36.7829C34.2129 36.2005 33.3558 35.3933 32.74 34.3614C32.1242 33.313 31.8163 32.1313 31.8163 30.8166C31.8163 29.5018 32.1242 28.3285 32.74 27.2967C33.3558 26.2648 34.2045 25.4577 35.2863 24.8752C36.3847 24.2927 37.6329 24.0014 39.0309 24.0014C40.3457 24.0014 41.494 24.2677 42.4759 24.8003C43.4745 25.3328 44.2234 26.0984 44.7227 27.097L42.3261 28.4949C41.9433 27.8792 41.4607 27.4215 40.8782 27.1219C40.3124 26.8057 39.6883 26.6476 39.0059 26.6476C37.8409 26.6476 36.8757 27.0304 36.1101 27.7959C35.3446 28.5449 34.9618 29.5517 34.9618 30.8166C34.9618 32.0814 35.3362 33.0966 36.0852 33.8622C36.8507 34.6111 37.8243 34.9855 39.0059 34.9855C39.6883 34.9855 40.3124 34.8358 40.8782 34.5362C41.4607 34.22 41.9433 33.754 42.3261 33.1382L44.7227 34.5362C44.2067 35.5348 43.4495 36.3086 42.4509 36.8578C41.469 37.3904 40.329 37.6567 39.0309 37.6567Z" fill="white"/>
</svg>
