<svg width="15" height="15" viewBox="0 0 15 15" fill="none" xmlns="http://www.w3.org/2000/svg">
<path d="M4.477 8.53497C4.85309 9.04456 5.28523 9.49519 5.8435 9.81401C6.47571 10.1754 7.15637 10.2843 7.87423 10.2511C8.2096 10.235 8.31048 10.1476 8.32595 9.81341C8.33634 9.58447 8.36279 9.35613 8.47551 9.15039C8.5863 8.94863 8.75434 8.91046 8.94825 9.03598C9.04478 9.09941 9.12608 9.17878 9.20304 9.26371C9.39199 9.46994 9.5749 9.68353 9.77061 9.88299C10.0167 10.1336 10.3086 10.2812 10.6748 10.2511L12.0936 10.2517C12.3219 10.2362 12.4407 9.95633 12.3096 9.70069C12.2173 9.52225 12.0961 9.3635 11.9681 9.20947C11.6781 8.86117 11.3365 8.56433 11.0134 8.24925C10.7222 7.96498 10.7038 7.79995 10.9377 7.47195C11.1937 7.11362 11.4681 6.76955 11.7261 6.41315C11.9667 6.08019 12.2137 5.74772 12.3397 5.34952C12.4204 5.09533 12.349 4.98334 12.0894 4.9384C12.0444 4.93103 11.9977 4.93103 11.9521 4.93103L10.4083 4.92909C10.2181 4.92607 10.1135 5.00919 10.0463 5.17773C9.95521 5.40558 9.86171 5.63331 9.75322 5.85246C9.50833 6.35105 9.23433 6.83297 8.85027 7.24047C8.76534 7.33023 8.67111 7.44416 8.52963 7.39741C8.35301 7.33277 8.3007 7.04113 8.30372 6.94267L8.30239 5.16057C8.26808 4.9065 8.2113 4.79258 7.95844 4.74316H6.3549C6.14143 4.74316 6.03366 4.8264 5.91913 4.9599C5.85389 5.03758 5.83348 5.08736 5.96903 5.11321C6.23481 5.16359 6.38571 5.33599 6.42509 5.60262C6.48852 6.02921 6.48417 6.45749 6.44732 6.88528C6.43681 7.0102 6.41531 7.13464 6.36589 7.25159C6.28845 7.43558 6.16281 7.47255 5.99851 7.35935C5.85027 7.25714 5.74565 7.11313 5.64271 6.96852C5.25805 6.42487 4.95155 5.83905 4.70099 5.22339C4.62898 5.04544 4.50406 4.93779 4.31572 4.93465C3.85277 4.92728 3.38933 4.92619 2.92578 4.93526C2.64755 4.94021 2.56443 5.07564 2.67835 5.32862C3.1825 6.45072 3.74391 7.54141 4.477 8.53497Z" fill="white"/>
<path d="M0 0V15H15V0H0ZM14.0722 14.0722H0.927835V0.927835H14.0722V14.0722Z" fill="white"/>
</svg>
