<svg width="15" height="15" viewBox="0 0 15 15" fill="none" xmlns="http://www.w3.org/2000/svg">
<g clip-path="url(#clip0)">
<path d="M9.49975 0C9.36176 0 9.24976 0.112002 9.24976 0.24999C9.24976 0.387978 9.36176 0.499979 9.49975 0.499979C12.2567 0.499979 14.4997 2.74297 14.4997 5.49998C14.4997 5.63797 14.6117 5.74997 14.7497 5.74997C14.888 5.74997 14.9997 5.63797 14.9997 5.49998C14.9997 2.46726 12.5325 0 9.49975 0Z" fill="white"/>
<path d="M9.49975 1.5C9.36176 1.5 9.24976 1.612 9.24976 1.74999C9.24976 1.88798 9.36176 1.99998 9.49975 1.99998C11.4297 1.99998 12.9997 3.56997 12.9997 5.49998C12.9997 5.63797 13.1117 5.74997 13.2497 5.74997C13.388 5.74997 13.4997 5.63797 13.4997 5.49998C13.4997 3.29452 11.7055 1.5 9.49975 1.5Z" fill="white"/>
<path d="M9.49975 3C9.36176 3 9.24976 3.112 9.24976 3.24999C9.24976 3.38798 9.36176 3.49998 9.49975 3.49998C10.6025 3.49998 11.4998 4.39722 11.4998 5.49998C11.4998 5.63797 11.6118 5.74997 11.7497 5.74997C11.888 5.74997 11.9997 5.63797 11.9997 5.49998C11.9997 4.12151 10.8782 3 9.49975 3Z" fill="white"/>
<path d="M13.5282 9.38126C12.848 9.29176 12.1772 9.12477 11.5347 8.8855C10.9125 8.65224 10.2054 8.80274 9.73195 9.26999L8.9417 10.0585C7.2847 9.0815 5.90045 7.70001 4.92121 6.04626L5.71196 5.25727C6.17945 4.78553 6.33044 4.07927 6.09671 3.45853C5.85698 2.81705 5.68972 2.14779 5.59972 1.46652C5.47995 0.622013 4.74871 -0.00323932 3.89397 1.26265e-05H1.70673C1.65572 1.26265e-05 1.60472 0.00250286 1.55424 0.00701457C1.09996 0.0480301 0.688723 0.263274 0.396458 0.612785C0.104222 0.96253 -0.0342932 1.40503 0.00722043 1.86276C0.249476 4.13977 1.03697 6.359 2.28323 8.279C3.41473 10.056 4.95399 11.5922 6.73272 12.7203C8.64923 13.9607 10.8625 14.7465 13.1382 14.9932C13.1897 14.9978 13.2414 15 13.2934 15C13.2949 15 13.2964 15 13.2982 15C14.2402 14.996 15.0032 14.228 14.9994 13.2887V11.109C15.0192 10.2448 14.3882 9.50226 13.5282 9.38126ZM14.4994 11.1C14.4994 11.102 14.4994 11.1042 14.4994 11.1062V13.29C14.5019 13.9545 13.9622 14.4975 13.2965 14.5002C13.2575 14.4987 13.22 14.4987 13.187 14.4957C10.9935 14.2577 8.85545 13.4987 7.00222 12.2992C5.28323 11.209 3.79723 9.72597 2.70373 8.00847C1.49896 6.15252 0.738469 4.00902 0.50471 1.81378C0.475706 1.49327 0.573469 1.18079 0.780217 0.933526C0.986965 0.686261 1.27771 0.534035 1.59921 0.505031C1.63495 0.501779 1.67072 0.500021 1.7067 0.500021H3.8962C3.90021 0.500021 3.9042 0.500021 3.90821 0.500021C4.50721 0.500021 5.02046 0.94378 5.10419 1.53426C5.19894 2.25051 5.37519 2.957 5.62843 3.63425C5.79369 4.07324 5.68694 4.57225 5.35767 4.90451L4.43168 5.8285C4.35168 5.90824 4.33518 6.03126 4.39093 6.12926C5.45042 7.98926 6.99568 9.53126 8.85893 10.5885C8.95693 10.6442 9.07942 10.6273 9.15893 10.548L10.0839 9.62501C10.4182 9.29528 10.9189 9.18902 11.3594 9.35402C12.0374 9.60653 12.7452 9.78278 13.4604 9.87676C14.0679 9.96225 14.5147 10.488 14.4994 11.1Z" fill="white"/>
<path d="M3.75012 1H1.70687C1.68587 1 1.66512 1.001 1.64438 1.00299C1.38965 1.02599 1.23387 1.17048 1.16388 1.25424C1.10763 1.32147 0.979139 1.50499 1.00164 1.757C1.09615 2.64376 1.26713 3.50649 1.51038 4.3215C1.54287 4.42975 1.64213 4.5 1.74988 4.5C1.77364 4.5 1.79763 4.49675 1.82163 4.48951C1.95387 4.45002 2.02914 4.31078 1.98962 4.17853C1.75512 3.39302 1.59012 2.56052 1.49936 1.70828C1.49362 1.64479 1.53487 1.59004 1.54761 1.57454C1.56812 1.55005 1.61385 1.5078 1.70687 1.50004H3.74962C3.74988 1.50004 3.74988 1.50004 3.74988 1.50004C3.88787 1.50004 3.99987 1.3883 3.99987 1.25028C4.00011 1.11224 3.88811 1 3.75012 1Z" fill="white"/>
<path d="M13.7497 11C13.6118 11 13.4997 11.112 13.4997 11.25L13.4995 13.2897C13.4997 13.346 13.4782 13.399 13.439 13.4385C13.3997 13.478 13.3477 13.4997 13.2982 13.5L13.2752 13.4995C12.421 13.4067 11.5955 13.2422 10.8218 13.0105C10.69 12.9707 10.5503 13.046 10.5105 13.1782C10.4707 13.3105 10.546 13.4497 10.6783 13.4895C11.481 13.73 12.3368 13.9005 13.2258 13.997C13.2463 13.999 13.288 14 13.294 14C13.4833 13.9992 13.6608 13.925 13.794 13.7907C13.9273 13.6562 14.0003 13.4777 13.9995 13.2887L13.9998 11.25C13.9998 11.112 13.8878 11 13.7497 11Z" fill="white"/>
</g>
<defs>
<clipPath id="clip0">
<rect width="15" height="15" fill="white"/>
</clipPath>
</defs>
</svg>
