<svg width="20" height="20" viewBox="0 0 20 20" fill="none" xmlns="http://www.w3.org/2000/svg">
<g clip-path="url(#clip0)">
<path d="M17.7463 2.25128C14.7607 -0.742582 9.91338 -0.749336 6.91952 2.23626C4.03075 5.11702 3.90853 9.75697 6.64156 12.7859L6.05691 13.3705C5.58456 12.8981 4.81866 12.898 4.34626 13.3704C4.34621 13.3704 4.34616 13.3705 4.34611 13.3705L0.354362 17.3622C-0.118045 17.8346 -0.118146 18.6005 0.354211 19.0729C0.354261 19.073 0.354311 19.073 0.354362 19.0731L0.924496 19.6432C1.39685 20.1154 2.16254 20.1154 2.6349 19.6432L6.62664 15.6514C7.09905 15.1791 7.09915 14.4132 6.62679 13.9408C6.62674 13.9407 6.62669 13.9407 6.62664 13.9406L7.21129 13.356C10.3482 16.1909 15.1893 15.946 18.0242 12.8091C20.7625 9.77904 20.6402 5.13304 17.7463 2.25128ZM6.05691 15.0809L2.06517 19.0726C1.90771 19.2301 1.65249 19.2301 1.49503 19.0726L0.924899 18.5021C0.767749 18.3447 0.767749 18.0898 0.924899 17.9324L4.91664 13.9406C5.07611 13.7882 5.32731 13.7882 5.48678 13.9406L6.05691 14.5112C6.21406 14.6686 6.21406 14.9235 6.05691 15.0809ZM17.1765 12.5153C14.4997 15.1921 10.1596 15.192 7.4828 12.5152C4.80601 9.83826 4.80606 5.4982 7.48295 2.82141C10.1598 0.144674 14.4997 0.144674 17.1765 2.82141C19.849 5.50011 19.849 9.8366 17.1765 12.5153Z" fill="white"/>
<path d="M16.6059 3.39209L16.0358 3.96222C18.0793 6.01072 18.0793 9.32669 16.0358 11.3752L16.6059 11.9453C18.9645 9.58202 18.9645 5.75538 16.6059 3.39209Z" fill="white"/>
</g>
<defs>
<clipPath id="clip0">
<rect width="20" height="20" fill="white"/>
</clipPath>
</defs>
</svg>
