<svg width="15" height="15" viewBox="0 0 15 15" fill="none" xmlns="http://www.w3.org/2000/svg">
<path d="M13.5 0.5H1.5C0.687 0.5 0 1.187 0 2V10.25C0 11.063 0.687 11.75 1.5 11.75H3.5V14.25C3.5 14.3532 3.5635 14.446 3.65975 14.4832C3.68925 14.4945 3.71975 14.5 3.75 14.5C3.819 14.5 3.88675 14.4712 3.935 14.4182L6.3605 11.75H13.5C14.313 11.75 15 11.063 15 10.25V2C15 1.187 14.313 0.5 13.5 0.5ZM14.5 10.25C14.5 10.792 14.042 11.25 13.5 11.25H6.79475L7.6895 10.2097C7.7795 10.1052 7.76775 9.94725 7.663 9.85725C7.5585 9.76725 7.40025 9.77925 7.31025 9.88375L6.06075 11.3365L4 13.6035V11.5C4 11.362 3.888 11.25 3.75 11.25H1.5C0.958 11.25 0.5 10.792 0.5 10.25V2C0.5 1.458 0.958 1 1.5 1H13.5C14.042 1 14.5 1.458 14.5 2V10.25Z" fill="white"/>
</svg>
