<svg width="15" height="15" viewBox="0 0 15 15" fill="none" xmlns="http://www.w3.org/2000/svg">
<path d="M10.875 0.625C9.53125 0.627075 8.27246 1.28247 7.5 2.38196C6.72754 1.28247 5.46875 0.627075 4.125 0.625C1.92749 0.625 0 2.66956 0 5C0 7.27124 1.28247 9.61047 3.70898 11.765C4.83325 12.7614 6.06653 13.6274 7.38525 14.347C7.45728 14.3842 7.54272 14.3842 7.61475 14.347C8.93298 13.6274 10.1659 12.7612 11.2898 11.765C13.7175 9.61047 15 7.27124 15 5C15 2.66956 13.0725 0.625 10.875 0.625V0.625ZM7.5 13.8407C6.58179 13.334 0.5 9.79395 0.5 5C0.5 2.93579 2.19373 1.125 4.125 1.125C5.43335 1.12732 6.6394 1.83313 7.28223 2.97278C7.33032 3.04626 7.41223 3.09045 7.5 3.09045C7.58777 3.09045 7.66968 3.04626 7.71777 2.97278C8.3606 1.83313 9.56665 1.12732 10.875 1.125C12.8063 1.125 14.5 2.93579 14.5 5C14.5 9.79395 8.41821 13.334 7.5 13.8407Z" fill="white"/>
</svg>
