<svg width="15" height="15" viewBox="0 0 15 15" fill="none" xmlns="http://www.w3.org/2000/svg">
<path d="M7.54891 3.28711C6.49179 3.28711 5.63135 4.14755 5.63135 5.20467C5.63135 6.2618 6.49179 7.12224 7.54891 7.12224C8.60604 7.12224 9.46647 6.2618 9.46647 5.20467C9.46647 4.14755 8.60604 3.28711 7.54891 3.28711ZM7.54891 6.57436C6.79366 6.57436 6.17922 5.95992 6.17922 5.20467C6.17922 4.44943 6.79366 3.83498 7.54891 3.83498C8.30416 3.83498 8.9186 4.44943 8.9186 5.20467C8.9186 5.95992 8.30416 6.57436 7.54891 6.57436Z" fill="white"/>
<path d="M11.2151 1.53871C10.2229 0.546506 8.9036 0 7.50049 0C6.09711 0 4.7781 0.546506 3.7859 1.53871C1.9497 3.37464 1.72151 6.82899 3.29172 8.92187L7.50049 15L11.703 8.93036C13.2795 6.82899 13.0513 3.37464 11.2151 1.53871ZM11.2586 8.61013L7.50049 14.0374L3.73632 8.60164C2.31212 6.7027 2.5162 3.5831 4.17352 1.92606C5.06218 1.0374 6.24367 0.547875 7.50049 0.547875C8.75732 0.547875 9.93881 1.0374 10.8277 1.92606C12.4851 3.5831 12.6891 6.7027 11.2586 8.61013Z" fill="white"/>
</svg>
