<svg width="15" height="15" viewBox="0 0 15 15" fill="none" xmlns="http://www.w3.org/2000/svg">
<path fill-rule="evenodd" clip-rule="evenodd" d="M12.4743 2.50505C11.1587 1.1879 9.40904 0.462198 7.54506 0.461426C3.70414 0.461426 0.578184 3.58729 0.576639 7.42925C0.576124 8.6574 0.896959 9.85628 1.50679 10.913L0.518188 14.5239L4.21225 13.5549C5.23012 14.1101 6.37605 14.4027 7.54223 14.4031H7.54515C11.3856 14.4031 14.5119 11.2769 14.5134 7.43482C14.5142 5.57281 13.79 3.82213 12.4743 2.50505ZM7.54506 13.2262H7.54266C6.50342 13.2258 5.48418 12.9465 4.5948 12.4189L4.3834 12.2934L2.19129 12.8684L2.77639 10.7312L2.63864 10.512C2.05885 9.58986 1.75269 8.52402 1.75321 7.42968C1.75441 4.23634 4.35267 1.63834 7.54738 1.63834C9.09439 1.63885 10.5486 2.24207 11.6421 3.33684C12.7356 4.43161 13.3374 5.88678 13.3369 7.4344C13.3355 10.628 10.7374 13.2262 7.54506 13.2262ZM10.722 8.88845C10.5479 8.80125 9.69186 8.38016 9.53221 8.32197C9.37274 8.26386 9.25652 8.23494 9.14057 8.40917C9.02444 8.58341 8.69081 8.97566 8.58919 9.09179C8.48757 9.208 8.38611 9.22259 8.21196 9.13539C8.03781 9.04827 7.47682 8.86434 6.81172 8.27116C6.29416 7.80948 5.94475 7.2393 5.84312 7.06507C5.74167 6.89066 5.84227 6.80551 5.91951 6.70973C6.108 6.47567 6.29674 6.23028 6.35476 6.11415C6.41287 5.99793 6.38377 5.89622 6.34017 5.80911C6.29674 5.72199 5.94852 4.86497 5.80347 4.51624C5.66202 4.17686 5.5186 4.2227 5.41165 4.21738C5.3102 4.21231 5.19407 4.21128 5.07794 4.21128C4.9619 4.21128 4.77324 4.2548 4.6136 4.42921C4.45404 4.60353 4.00429 5.0247 4.00429 5.88172C4.00429 6.73874 4.62819 7.56666 4.71522 7.68288C4.80225 7.79909 5.94303 9.55776 7.6896 10.3119C8.10502 10.4914 8.42929 10.5985 8.68223 10.6787C9.09937 10.8112 9.47882 10.7925 9.77889 10.7477C10.1135 10.6977 10.8089 10.3265 10.9542 9.91979C11.0992 9.51304 11.0992 9.16448 11.0556 9.09179C11.0122 9.01917 10.8961 8.97566 10.722 8.88845Z" fill="white"/>
</svg>
