<svg width="15" height="15" viewBox="0 0 15 15" fill="none" xmlns="http://www.w3.org/2000/svg">
<path d="M7.5 15C11.6356 15 15 11.6356 15 7.5C15 3.36437 11.6356 0 7.5 0C3.36437 0 0 3.36437 0 7.5C0 11.6356 3.36437 15 7.5 15ZM7.5 0.9375C11.1187 0.9375 14.0625 3.88125 14.0625 7.5C14.0625 11.1187 11.1187 14.0625 7.5 14.0625C3.88125 14.0625 0.9375 11.1187 0.9375 7.5C0.9375 3.88125 3.88125 0.9375 7.5 0.9375Z" fill="white"/>
<path d="M4.93498 8.84688L5.91498 8.42125L5.63998 8.69688C5.55185 8.785 5.50248 8.90438 5.50248 9.02813V10.8625C5.50248 11.2825 6.00998 11.4863 6.30248 11.1938L7.28623 10.21L9.42998 11.2819C9.70748 11.4206 10.0431 11.2563 10.1006 10.9463L11.3237 4.22063C11.3881 3.85875 11.0319 3.56625 10.6912 3.7L2.74373 6.81063C2.38748 6.94938 2.33998 7.43688 2.66248 7.6425L4.49623 8.8125C4.62748 8.89625 4.7931 8.90938 4.93498 8.84688ZM10.2512 4.88L9.2906 10.1644L7.4031 9.22125C7.2206 9.13 7.0031 9.16813 6.86248 9.30938L6.43998 9.73188V9.22375L8.31935 7.34438C8.68373 6.98 8.27373 6.37875 7.80123 6.58313L4.7906 7.88938L3.94435 7.34938L10.2512 4.88Z" fill="white"/>
</svg>
