<svg width="15" height="15" viewBox="0 0 15 15" fill="none" xmlns="http://www.w3.org/2000/svg">
<path d="M13.2578 7.18909H10.382C10.3283 7.18909 10.2767 7.16774 10.2387 7.12972C10.2007 7.09171 10.1793 7.04015 10.1793 6.98639C10.1793 6.93263 10.2007 6.88107 10.2387 6.84306C10.2767 6.80505 10.3283 6.78369 10.382 6.78369H13.2578C13.3115 6.78369 13.3631 6.80505 13.4011 6.84306C13.4391 6.88107 13.4605 6.93263 13.4605 6.98639C13.4605 7.04015 13.4391 7.09171 13.4011 7.12972C13.3631 7.16774 13.3115 7.18909 13.2578 7.18909Z" fill="white"/>
<path d="M11.892 13.7822H3.4881C3.43434 13.7822 3.38278 13.7609 3.34477 13.7229C3.30676 13.6848 3.2854 13.6333 3.2854 13.5795V6.43061C3.28542 6.4031 3.29104 6.37589 3.30191 6.35063C3.31278 6.32536 3.32868 6.30257 3.34864 6.28365C3.36843 6.26441 3.39205 6.24955 3.41797 6.24005C3.44389 6.23055 3.47151 6.22662 3.49905 6.22851C4.36276 6.27554 5.0552 6.04608 5.55405 5.545C6.24932 4.84811 6.55358 3.63635 6.4581 1.94378C6.45385 1.86818 6.45283 1.79176 6.45182 1.71453C6.45182 1.65372 6.4502 1.59047 6.44756 1.52784C6.44273 1.33948 6.49251 1.15375 6.59088 0.993048C6.68925 0.832346 6.83201 0.703539 7.00195 0.622162C7.18245 0.542353 7.37854 0.503981 7.57581 0.509865C7.97332 0.522391 8.35056 0.688308 8.62844 0.972838C9.74695 2.07189 9.52439 3.75311 9.34702 4.51243H13.2578C13.5468 4.51231 13.8282 4.60582 14.0596 4.77895C14.2911 4.95209 14.4603 5.19554 14.5418 5.47286C14.6234 5.75018 14.6129 6.04645 14.512 6.31733C14.4111 6.5882 14.2251 6.81911 13.982 6.97547C14.1926 7.10582 14.3613 7.29401 14.468 7.51758C14.5746 7.74115 14.6147 7.99067 14.5834 8.23638C14.5522 8.4821 14.4509 8.71364 14.2917 8.90339C14.1325 9.09314 13.922 9.23309 13.6855 9.30655C13.8794 9.48441 14.0158 9.71608 14.0772 9.97192C14.1387 10.2278 14.1224 10.4961 14.0304 10.7426C13.9385 10.9891 13.7751 11.2026 13.5611 11.3557C13.3471 11.5088 13.0923 11.5945 12.8293 11.602C13.0034 11.785 13.1199 12.0151 13.1644 12.2637C13.209 12.5124 13.1795 12.7687 13.0796 13.0007C12.9798 13.2328 12.8141 13.4304 12.6029 13.5691C12.3918 13.7077 12.1446 13.7814 11.892 13.7808V13.7822ZM3.69081 13.3768H11.892C12.127 13.3768 12.3525 13.2834 12.5187 13.1172C12.685 12.951 12.7784 12.7255 12.7784 12.4904C12.7784 12.2553 12.685 12.0298 12.5187 11.8636C12.3525 11.6974 12.127 11.604 11.892 11.604C11.8382 11.604 11.7866 11.5826 11.7486 11.5446C11.7106 11.5066 11.6893 11.455 11.6893 11.4013C11.6893 11.3475 11.7106 11.296 11.7486 11.258C11.7866 11.2199 11.8382 11.1986 11.892 11.1986H12.792C13.0351 11.1986 13.2683 11.102 13.4402 10.9301C13.6121 10.7582 13.7087 10.525 13.7087 10.2819C13.7087 10.0387 13.6121 9.80556 13.4402 9.63364C13.2683 9.46172 13.0351 9.36514 12.792 9.36514C12.7382 9.36514 12.6866 9.34378 12.6486 9.30577C12.6106 9.26775 12.5893 9.21619 12.5893 9.16243C12.5893 9.10867 12.6106 9.05711 12.6486 9.0191C12.6866 8.98109 12.7382 8.95973 12.792 8.95973H13.3036C13.5384 8.95973 13.7636 8.86645 13.9297 8.7004C14.0957 8.53436 14.189 8.30915 14.189 8.07432C14.189 7.8395 14.0957 7.61429 13.9297 7.44825C13.7636 7.2822 13.5384 7.18892 13.3036 7.18892H13.2576C13.2038 7.18892 13.1522 7.16756 13.1142 7.12955C13.0762 7.09154 13.0549 7.03998 13.0549 6.98622C13.0549 6.93246 13.0762 6.8809 13.1142 6.84288C13.1522 6.80487 13.2038 6.78351 13.2576 6.78351C13.5049 6.78351 13.742 6.68528 13.9169 6.51041C14.0918 6.33555 14.19 6.09838 14.19 5.85108C14.19 5.60379 14.0918 5.36662 13.9169 5.19175C13.742 5.01689 13.5049 4.91865 13.2576 4.91865H9.08513C9.05422 4.91866 9.02373 4.9116 8.99597 4.89801C8.96821 4.88442 8.94393 4.86467 8.92497 4.84026C8.90602 4.81585 8.8929 4.78743 8.88661 4.75717C8.88033 4.72691 8.88105 4.69562 8.88871 4.66568L8.89662 4.6371C9.04418 4.11777 9.44067 2.33987 8.34364 1.26189C8.14001 1.05059 7.86255 0.92624 7.56932 0.914865C7.43228 0.909031 7.29575 0.934978 7.1704 0.990676C7.07235 1.03866 6.99022 1.11389 6.93384 1.20737C6.87747 1.30084 6.84925 1.40859 6.85256 1.5177C6.8554 1.57689 6.85621 1.64358 6.85702 1.70966C6.85702 1.78081 6.85885 1.85155 6.8627 1.92108C6.96405 3.73385 6.62087 5.04939 5.84067 5.83162C5.55519 6.10419 5.21759 6.31628 4.84812 6.45516C4.47866 6.59404 4.08494 6.65684 3.6906 6.6398L3.69081 13.3768Z" fill="white"/>
<path d="M12.7921 9.36488H10.6702C10.6165 9.36488 10.5649 9.34353 10.5269 9.30551C10.4889 9.2675 10.4675 9.21594 10.4675 9.16218C10.4675 9.10842 10.4889 9.05686 10.5269 9.01884C10.5649 8.98083 10.6165 8.95947 10.6702 8.95947H12.7921C12.8459 8.95947 12.8974 8.98083 12.9355 9.01884C12.9735 9.05686 12.9948 9.10842 12.9948 9.16218C12.9948 9.21594 12.9735 9.2675 12.9355 9.30551C12.8974 9.34353 12.8459 9.36488 12.7921 9.36488Z" fill="white"/>
<path d="M13.2578 7.18909H10.382C10.3283 7.18909 10.2767 7.16774 10.2387 7.12972C10.2007 7.09171 10.1793 7.04015 10.1793 6.98639C10.1793 6.93263 10.2007 6.88107 10.2387 6.84306C10.2767 6.80505 10.3283 6.78369 10.382 6.78369H13.2578C13.3115 6.78369 13.3631 6.80505 13.4011 6.84306C13.4391 6.88107 13.4605 6.93263 13.4605 6.98639C13.4605 7.04015 13.4391 7.09171 13.4011 7.12972C13.3631 7.16774 13.3115 7.18909 13.2578 7.18909Z" fill="white"/>
<path d="M11.8919 11.6041H11.2465C11.1928 11.6041 11.1412 11.5828 11.1032 11.5448C11.0652 11.5068 11.0438 11.4552 11.0438 11.4014C11.0438 11.3477 11.0652 11.2961 11.1032 11.2581C11.1412 11.2201 11.1928 11.1987 11.2465 11.1987H11.8919C11.9457 11.1987 11.9972 11.2201 12.0353 11.2581C12.0733 11.2961 12.0946 11.3477 12.0946 11.4014C12.0946 11.4552 12.0733 11.5068 12.0353 11.5448C11.9972 11.5828 11.9457 11.6041 11.8919 11.6041V11.6041Z" fill="white"/>
<path d="M12.7921 9.36488H10.6702C10.6165 9.36488 10.5649 9.34353 10.5269 9.30551C10.4889 9.2675 10.4675 9.21594 10.4675 9.16218C10.4675 9.10842 10.4889 9.05686 10.5269 9.01884C10.5649 8.98083 10.6165 8.95947 10.6702 8.95947H12.7921C12.8459 8.95947 12.8974 8.98083 12.9355 9.01884C12.9735 9.05686 12.9948 9.10842 12.9948 9.16218C12.9948 9.21594 12.9735 9.2675 12.9355 9.30551C12.8974 9.34353 12.8459 9.36488 12.7921 9.36488Z" fill="white"/>
<path d="M11.8919 11.6041H11.2465C11.1928 11.6041 11.1412 11.5828 11.1032 11.5448C11.0652 11.5068 11.0438 11.4552 11.0438 11.4014C11.0438 11.3477 11.0652 11.2961 11.1032 11.2581C11.1412 11.2201 11.1928 11.1987 11.2465 11.1987H11.8919C11.9457 11.1987 11.9972 11.2201 12.0353 11.2581C12.0733 11.2961 12.0946 11.3477 12.0946 11.4014C12.0946 11.4552 12.0733 11.5068 12.0353 11.5448C11.9972 11.5828 11.9457 11.6041 11.8919 11.6041V11.6041Z" fill="white"/>
<path d="M9.08515 4.91984C9.03157 4.91984 8.98016 4.89863 8.94217 4.86083C8.90419 4.82304 8.88271 4.77174 8.88245 4.71816V4.71613C8.88245 4.67604 8.89433 4.63685 8.91661 4.60351C8.93888 4.57018 8.97054 4.5442 9.00758 4.52886C9.04462 4.51352 9.08538 4.5095 9.1247 4.51732C9.16402 4.52514 9.20014 4.54445 9.22849 4.5728C9.25684 4.60115 9.27614 4.63726 9.28397 4.67658C9.29179 4.7159 9.28777 4.75666 9.27243 4.7937C9.25709 4.83074 9.23111 4.86239 9.19777 4.88467C9.16444 4.90694 9.12525 4.91883 9.08515 4.91883V4.91984Z" fill="white"/>
<path d="M3.18242 14.4901H0.912152C0.777867 14.4897 0.649189 14.4362 0.554235 14.3413C0.45928 14.2463 0.40577 14.1176 0.405396 13.9834V6.02141C0.40577 5.88712 0.45928 5.75844 0.554235 5.66349C0.649189 5.56853 0.777867 5.51502 0.912152 5.51465H3.18242C3.31671 5.51502 3.44539 5.56853 3.54034 5.66349C3.63529 5.75844 3.68881 5.88712 3.68918 6.02141V13.9826C3.68902 14.117 3.6356 14.2459 3.54063 14.341C3.44565 14.4361 3.31685 14.4897 3.18242 14.4901V14.4901ZM0.912152 5.91884C0.885272 5.91884 0.859493 5.92952 0.840486 5.94852C0.821479 5.96753 0.810801 5.99331 0.810801 6.02019V13.9826C0.810801 14.0094 0.821479 14.0352 0.840486 14.0542C0.859493 14.0732 0.885272 14.0839 0.912152 14.0839H3.18242C3.2093 14.0839 3.23508 14.0732 3.25409 14.0542C3.2731 14.0352 3.28377 14.0094 3.28377 13.9826V6.02141C3.28377 5.99453 3.2731 5.96875 3.25409 5.94974C3.23508 5.93073 3.2093 5.92005 3.18242 5.92005L0.912152 5.91884Z" fill="white"/>
</svg>
