<svg width="20" height="20" viewBox="0 0 20 20" fill="none" xmlns="http://www.w3.org/2000/svg">
<path d="M9.86876 9.96261C12.4533 9.96261 14.5483 7.86752 14.5483 5.28306C14.5483 2.69874 12.4533 0.603516 9.86876 0.603516C7.28443 0.603516 5.18921 2.69874 5.18921 5.28306C5.1912 7.86665 7.28517 9.96062 9.86876 9.96261ZM9.86876 1.39664C12.0152 1.39664 13.7552 3.13657 13.7552 5.28306C13.7552 7.42955 12.0152 9.16949 9.86876 9.16949C7.72252 9.16949 5.98233 7.42955 5.98233 5.28306C5.98593 3.13819 7.72388 1.40012 9.86876 1.39664Z" fill="white"/>
<path d="M9.86875 11.1328C7.83448 11.1328 5.94272 11.922 4.53895 13.3576C3.1152 14.813 2.33386 16.7997 2.33386 18.9573C2.33448 19.176 2.51175 19.3532 2.73049 19.3538H17.0071C17.226 19.3532 17.403 19.176 17.4036 18.9573C17.4036 16.8038 16.6224 14.813 15.1988 13.3616C13.7949 11.9259 11.9033 11.1328 9.86875 11.1328ZM3.13506 18.5606C3.22233 16.7682 3.91627 15.1303 5.10205 13.9167C6.35523 12.6358 8.04862 11.93 9.8649 11.93C11.6812 11.93 13.3746 12.6358 14.6276 13.9167C15.8174 15.1303 16.5075 16.7682 16.5947 18.5606H3.13506Z" fill="white"/>
</svg>
