<svg width="124" height="124" viewBox="0 0 124 124" fill="none" xmlns="http://www.w3.org/2000/svg">
<g filter="url(#filter0_d_246_36)">
<rect x="10" y="10.324" width="98.5916" height="98.5916" fill="#01E1FF"/>
</g>
<rect x="14.9294" y="15.2529" width="88.7324" height="88.7324" fill="#004580"/>
<path d="M56.1677 45.7277C59.3997 45.7277 61.9597 46.6717 63.8477 48.5597C65.7357 50.4157 66.6797 53.2157 66.6797 56.9597V71.6477H60.6797V57.7277C60.6797 55.4877 60.1837 53.8077 59.1917 52.6877C58.1997 51.5357 56.7757 50.9597 54.9197 50.9597C52.9037 50.9597 51.2877 51.6317 50.0717 52.9757C48.8557 54.2877 48.2477 56.1757 48.2477 58.6397V71.6477H42.2477V57.7277C42.2477 55.4877 41.7517 53.8077 40.7597 52.6877C39.7677 51.5357 38.3437 50.9597 36.4877 50.9597C34.4397 50.9597 32.8077 51.6157 31.5917 52.9277C30.4077 54.2397 29.8157 56.1437 29.8157 58.6397L29.8157 71.6477H23.8157L23.8157 46.0157H29.5277V49.2797C30.4877 48.1277 31.6877 47.2477 33.1277 46.6397C34.5677 46.0317 36.1677 45.7277 37.9277 45.7277C39.8477 45.7277 41.5437 46.0957 43.0157 46.8317C44.5197 47.5357 45.7037 48.5917 46.5677 49.9997C47.6237 48.6557 48.9837 47.6157 50.6477 46.8797C52.3117 46.1117 54.1517 45.7277 56.1677 45.7277ZM86.3413 71.9837C83.6853 71.9837 81.3013 71.4237 79.1893 70.3037C77.0773 69.1837 75.4293 67.6317 74.2453 65.6477C73.0613 63.6317 72.4693 61.3597 72.4693 58.8317C72.4693 56.3037 73.0613 54.0477 74.2453 52.0637C75.4293 50.0797 77.0613 48.5277 79.1413 47.4077C81.2533 46.2877 83.6533 45.7277 86.3413 45.7277C88.8693 45.7277 91.0773 46.2397 92.9653 47.2637C94.8853 48.2877 96.3253 49.7597 97.2853 51.6797L92.6773 54.3677C91.9413 53.1837 91.0133 52.3037 89.8933 51.7277C88.8053 51.1197 87.6053 50.8157 86.2933 50.8157C84.0533 50.8157 82.1973 51.5517 80.7253 53.0237C79.2533 54.4637 78.5173 56.3997 78.5173 58.8317C78.5173 61.2637 79.2373 63.2157 80.6773 64.6877C82.1493 66.1277 84.0213 66.8477 86.2933 66.8477C87.6053 66.8477 88.8053 66.5597 89.8933 65.9837C91.0133 65.3757 91.9413 64.4797 92.6773 63.2957L97.2853 65.9837C96.2933 67.9037 94.8373 69.3917 92.9173 70.4477C91.0293 71.4717 88.8373 71.9837 86.3413 71.9837Z" fill="white"/>
<defs>
<filter id="filter0_d_246_36" x="0.0144501" y="0.338425" width="123.555" height="123.555" filterUnits="userSpaceOnUse" color-interpolation-filters="sRGB">
<feFlood flood-opacity="0" result="BackgroundImageFix"/>
<feColorMatrix in="SourceAlpha" type="matrix" values="0 0 0 0 0 0 0 0 0 0 0 0 0 0 0 0 0 0 127 0" result="hardAlpha"/>
<feOffset dx="2.49639" dy="2.49639"/>
<feGaussianBlur stdDeviation="6.24097"/>
<feColorMatrix type="matrix" values="0 0 0 0 0 0 0 0 0 0 0 0 0 0 0 0 0 0 0.3 0"/>
<feBlend mode="normal" in2="BackgroundImageFix" result="effect1_dropShadow_246_36"/>
<feBlend mode="normal" in="SourceGraphic" in2="effect1_dropShadow_246_36" result="shape"/>
</filter>
</defs>
</svg>
